<?xml version="1.0" encoding="UTF-8"?>
<svg width="1024px" height="1024px" viewBox="0 0 1024 1024" version="1.1" xmlns="http://www.w3.org/2000/svg" xmlns:xlink="http://www.w3.org/1999/xlink">
    <!-- Generator: Sketch 51.3 (57544) - http://www.bohemiancoding.com/sketch -->
    <title>单独</title>
    <desc>Created with Sketch.</desc>
    <defs>
        <linearGradient x1="6.42695501%" y1="2.13333861%" x2="93.573045%" y2="80.6000305%" id="linearGradient-1">
            <stop stop-color="#1D9FF6" offset="0%"></stop>
            <stop stop-color="#22BAF7" offset="100%"></stop>
        </linearGradient>
        <linearGradient x1="11.2322062%" y1="68.3606094%" x2="138.767794%" y2="115.912532%" id="linearGradient-2">
            <stop stop-color="#21B5F7" offset="0%"></stop>
            <stop stop-color="#27D4F9" offset="100%"></stop>
        </linearGradient>
    </defs>
    <g id="单独" stroke="none" stroke-width="1" fill="none" fill-rule="evenodd">
        <g id="Group" transform="translate(5.000000, 18.000000)">
            <path d="M521.508203,82.6132926 C354.169189,15.4436224 193.363377,30.3300349 106.078034,127.270229 C-6.86903778,252.71066 30.6519133,484.726893 196.40631,678.506002 C203.71476,687.050118 202.71162,699.903246 194.165734,707.214265 C185.619849,714.525284 172.76737,713.525661 165.458921,704.981545 C-12.1254881,497.37228 -53.2088774,243.327194 75.8201671,100.025923 C168.559706,-2.9717693 328.132062,-25.0852603 495.417669,29.7866584 C500.350294,30.7785625 506.065199,32.2035557 512.562385,34.0616382 C556.142602,46.5248228 592.188153,53.3624554 620.699041,54.574536 C627.025679,52.481796 633.789617,51.3491124 640.818182,51.3491124 C676.164406,51.3491124 704.818182,79.9949408 704.818182,115.331361 C704.818182,150.667781 676.164406,179.313609 640.818182,179.313609 C625.893254,179.313609 612.161554,174.20621 601.276437,165.644308 L600.923025,166.664306 C600.355005,165.754398 599.785283,164.850136 599.21386,163.95152 C591.07669,156.985841 584.708708,148.014025 580.876694,137.802641 C562.626601,114.29749 542.837104,95.9010407 521.508203,82.6132926 Z" id="Combined-Shape" fill="url(#linearGradient-1)" fill-rule="nonzero"></path>
            <path d="M369.552476,830.017613 C572.616732,963.278205 799.759655,976.332261 911.180531,852.586842 C1040.90964,708.508067 969.806887,427.796962 746.983988,227.166322 C735.06291,216.432535 722.896772,206.099177 710.511025,196.181724 C701.734453,189.154191 700.318375,176.340655 707.348125,167.56189 C714.377875,158.783125 727.191431,157.36347 735.968002,164.391002 C748.966744,174.799289 761.731422,185.64102 774.235852,196.90006 C1011.80416,410.807526 1089.07383,715.865388 941.438398,879.831148 C819.559809,1015.19104 586.030324,1008.16605 374.596466,881.247574 C371.636405,879.824038 368.457598,878.21055 365.060046,876.40711 C315.485807,850.092831 275.417972,834.616946 244.85654,829.979454 L245.033174,829.686765 C215.316297,824.156841 192.818182,798.098541 192.818182,766.786982 C192.818182,731.450562 221.471958,702.804734 256.818182,702.804734 C290.727676,702.804734 318.477726,729.169139 320.677631,762.512627 C334.217162,790.026703 350.508777,812.528367 369.552476,830.017613 Z" id="Combined-Shape" fill="url(#linearGradient-2)" fill-rule="nonzero"></path>
            <path d="M245.181818,260.745562 C261.248284,260.745562 274.272727,247.724731 274.272727,231.662722 C274.272727,215.600713 261.248284,202.579882 245.181818,202.579882 C229.115353,202.579882 216.090909,215.600713 216.090909,231.662722 C216.090909,247.724731 229.115353,260.745562 245.181818,260.745562 Z M332.854972,188.734944 C318.743134,194.147278 310.84337,207.841083 309.155682,229.816359 C309.173067,230.429692 309.181818,231.045185 309.181818,231.662722 C309.181818,233.995979 309.05689,236.300066 308.813355,238.568662 C308.812318,238.788461 308.8118,239.008944 308.8118,239.230117 L308.748103,239.151388 C305.038982,270.959213 277.994034,295.64497 245.181818,295.64497 C209.835594,295.64497 181.181818,266.999142 181.181818,231.662722 C181.181818,196.326302 209.835594,167.680473 245.181818,167.680473 C247.192417,167.680473 249.181362,167.773162 251.14461,167.954498 L251,167.775763 C264.005522,169.484918 279.160989,168.152457 296.4664,163.778381 C399.761928,121.646028 557.33134,170.862829 685.084545,285.892332 C781.131699,372.373577 843.288586,480.73482 853.359979,576.409954 C854.241172,584.781019 854.716864,593.017662 854.782186,601.097015 C854.860113,610.73536 847.110071,618.614112 837.471984,618.6947 C827.833896,618.775288 819.95751,611.027195 819.879583,601.38885 C819.823485,594.450285 819.412735,587.338133 818.648027,580.073644 C809.551084,493.655477 751.756009,392.898403 661.725804,311.834842 C552.726004,213.690981 422.247066,167.725456 332.854972,188.734944 Z" id="Combined-Shape" fill="#1EA3F6" fill-rule="nonzero"></path>
            <path d="M803.727273,737.704142 C819.793738,737.704142 832.818182,724.683311 832.818182,708.621302 C832.818182,692.559293 819.793738,679.538462 803.727273,679.538462 C787.660807,679.538462 774.636364,692.559293 774.636364,708.621302 C774.636364,724.683311 787.660807,737.704142 803.727273,737.704142 Z M710.960036,739.110898 C727.196232,733.756935 736.785421,723.662677 739.727602,708.828125 C739.727382,708.759217 739.727273,708.690272 739.727273,708.621302 C739.727273,673.284882 768.381049,644.639053 803.727273,644.639053 C839.073497,644.639053 867.727273,673.284882 867.727273,708.621302 C867.727273,743.957722 839.073497,772.60355 803.727273,772.60355 C794.925764,772.60355 786.539222,770.82736 778.906726,767.613964 C766.144038,764.23597 754.370928,764.075657 743.587396,767.133024 L743.286855,767.073685 C639.513989,799.969764 490.077869,749.527036 368.429298,639.994171 C272.727962,553.824301 210.662274,445.923671 200.260756,350.474399 C199.216601,340.892732 206.13763,332.276633 215.719308,331.229804 C225.300985,330.182975 233.914925,337.101828 234.959081,346.683495 C244.358043,432.932844 302.075515,533.274142 391.78804,614.051661 C496.311753,708.165236 621.33236,754.912217 710.960044,739.110896 Z" id="Combined-Shape" fill="#1EA3F6" fill-rule="nonzero"></path>
            <path d="M425.545455,520.2037 L425.545455,492.277356 L480.018981,492.277356 L480.018981,520.2037 L425.545455,520.2037 Z M425.545455,534.166873 L480.018981,534.166873 L480.018981,569.023669 L425.545455,569.023669 L425.545455,534.166873 Z M542.0757,520.2037 L520.256367,492.277356 L634.693107,492.277356 L634.693107,520.2037 L542.0757,520.2037 Z M552.985366,534.166873 L634.693107,534.166873 L634.693107,569.023669 L580.21958,569.023669 L552.985366,534.166873 Z M425.545455,478.314183 L425.545455,450.387839 L480.018981,450.387839 L480.018981,478.314183 L425.545455,478.314183 Z M509.3467,478.314183 L487.527367,450.387839 L551.016739,450.387839 L572.862203,478.314183 L509.3467,478.314183 Z M634.693107,478.314183 L580.21958,478.314183 L580.21958,450.387839 L634.693107,450.387839 L634.693107,478.314183 Z M425.545455,436.424667 L425.545455,408.498322 L518.248543,408.498322 L540.094007,436.424667 L425.545455,436.424667 Z M634.693107,436.424667 L580.21958,436.424667 L580.21958,408.498322 L634.693107,408.498322 L634.693107,436.424667 Z M425.545455,394.53515 L425.545455,359.627219 L480.018981,359.627219 L507.325811,394.53515 L425.545455,394.53515 Z M580.21958,394.53515 L580.21958,359.627219 L634.693107,359.627219 L634.693107,394.53515 L580.21958,394.53515 Z" id="Combined-Shape" fill="#1D9BF6"></path>
        </g>
    </g>
</svg>